#!OML:ASF F:\VICON\USERDATA\INSTALL\rory3\rory3.ASF
:FULLY-SPECIFIED
:DEGREES
1094
root -5.23471 17.9509 -1.34358 28.6364 -25.4439 2.4872
lowerback 21.7197 -0.72695 -0.926108
upperback 4.9971 -1.03693 2.27854
thorax -6.60759 -0.507915 3.27963
lowerneck -17.4513 -8.46925 -13.4235
upperneck 3.6197 -9.71877 13.4878
head 5.24989 -4.23726 5.43597
rclavicle -4.57205e-014 2.78299e-015
rhumerus -15.8302 34.6088 -93.8791
rradius 43.7609
rwrist 43.0204
rhand -15.3898 -6.07793
rfingers 7.12502
rthumb 10.7888 -35.7808
lclavicle -4.57205e-014 2.78299e-015
lhumerus -26.2278 -21.1116 98.6545
lradius 49.7715
lwrist -19.0277
lhand -19.1218 35.2291
lfingers 7.12502
lthumb 7.18762 65.0871
rfemur -51.4252 -3.24262 20.8529
rtibia 24.3929
rfoot 0.427881 -4.00483
rtoes 18.2706
lfemur -40.4427 -3.87627 -7.58399
ltibia 42.3391
lfoot -0.0817851 8.32105
ltoes -23.5382
1095
root -5.24324 17.9475 -1.32866 28.4702 -25.3044 2.68355
lowerback 21.5716 -0.807784 -1.04283
upperback 4.9673 -1.16575 2.26554
thorax -6.55247 -0.567936 3.3627
lowerneck -17.3564 -8.43831 -13.5023
upperneck 3.65693 -9.66584 13.4185
head 5.23836 -4.21928 5.43493
rclavicle 6.52014e-014 3.53837e-014
rhumerus -15.6979 34.8874 -93.9322
rradius 43.5238
rwrist 42.8842
rhand -15.3628 -6.01503
rfingers 7.12502
rthumb 10.8148 -35.7166
lclavicle 6.52014e-014 3.53837e-014
lhumerus -26.1706 -21.2809 98.6342
lradius 49.4783
lwrist -18.9216
lhand -18.9205 35.0463
lfingers 7.12502
lthumb 7.38189 64.8975
rfemur -51.4874 -3.15235 20.5414
rtibia 24.85
rfoot -0.0631527 -4.21569
rtoes 17.8581
lfemur -40.3015 -4.04316 -7.61209
ltibia 42.256
lfoot -0.122378 7.93554
ltoes -23.824
1096
root -5.25082 17.9428 -1.31187 28.2036 -25.0762 2.86272
lowerback 21.472 -0.89986 -1.04449
upperback 4.96592 -1.28815 2.20761
thorax -6.49552 -0.627208 3.32962
lowerneck -17.1942 -8.38278 -13.4493
upperneck 3.56361 -9.61208 13.3978
head 5.17303 -4.19997 5.43091
rclavicle 4.01545e-014 2.70347e-014
rhumerus -15.6291 34.9925 -94.0923
rradius 43.2559
rwrist 42.7876
rhand -15.6893 -5.88517
rfingers 7.12502
rthumb 10.4999 -35.6029
lclavicle 4.01545e-014 2.70347e-014
lhumerus -26.1259 -21.6689 98.5679
lradius 49.235
lwrist -18.4954
lhand -18.6481 35.051
lfingers 7.12502
lthumb 7.64485 64.8928
rfemur -51.4012 -2.86626 20.0493
rtibia 25.3633
rfoot -0.742064 -4.7087
rtoes 17.8811
lfemur -40.0614 -4.21176 -7.63278
ltibia 42.17
lfoot -0.131796 7.51691
ltoes -24.1133
1097
root -5.25775 17.9392 -1.29724 27.8798 -24.901 3.02652
lowerback 21.5007 -0.988045 -1.15664
upperback 4.93318 -1.42532 2.19546
thorax -6.53472 -0.689977 3.41844
lowerneck -17.0714 -8.26758 -13.3411
upperneck 3.47004 -9.46957 13.2353
head 5.0902 -4.14297 5.3825
rclavicle 4.96962e-014 -9.54166e-015
rhumerus -15.6487 35.3151 -94.2895
rradius 43.093
rwrist 42.5254
rhand -15.8118 -5.78355
rfingers 7.12502
rthumb 10.3817 -35.5073
lclavicle 4.96962e-014 -9.54166e-015
lhumerus -26.1162 -21.7921 98.5267
lradius 49.0228
lwrist -18.2741
lhand -18.3862 35.1293
lfingers 7.12502
lthumb 7.89756 64.9618
rfemur -51.2911 -2.59333 19.6047
rtibia 25.9322
rfoot -1.33242 -5.14945
rtoes 17.86
lfemur -39.7484 -4.25551 -7.69865
ltibia 42.0904
lfoot -0.129764 7.05115
ltoes -23.9403
1098
root -5.2633 17.9324 -1.28506 27.6184 -24.7142 3.11107
lowerback 21.5195 -1.0528 -1.20652
upperback 4.87207 -1.5176 2.19441
thorax -6.60362 -0.731081 3.47238
lowerneck -16.8732 -8.20136 -13.2511
upperneck 3.29559 -9.39825 13.1284
head 4.9847 -4.12147 5.34797
rclavicle -9.93923e-015 3.33958e-014
rhumerus -15.6045 35.5792 -94.4765
rradius 42.861
rwrist 42.3184
rhand -15.9415 -5.69288
rfingers 7.12502
rthumb 10.2566 -35.4228
lclavicle -9.93923e-015 3.33958e-014
lhumerus -26.0998 -22.044 98.4721
lradius 48.7678
lwrist -18.1302
lhand -17.9568 35.249
lfingers 7.12502
lthumb 8.31206 65.0655
rfemur -51.2498 -2.38936 19.3357
rtibia 26.5049
rfoot -1.7961 -5.51622
rtoes 17.6319
lfemur -39.4695 -4.22661 -7.69564
ltibia 42.0347
lfoot -0.142612 6.47523
ltoes -23.9549
1099
root -5.26684 17.9274 -1.2722 27.3849 -24.4601 3.17499
lowerback 21.4257 -1.05729 -1.03437
upperback 4.88127 -1.49036 2.13512
thorax -6.55288 -0.721442 3.29846
lowerneck -16.8276 -8.29854 -13.214
upperneck 3.1153 -9.53376 13.173
head 4.94069 -4.18874 5.34141
rclavicle -6.16232e-014 7.03698e-014
rhumerus -15.2968 35.4766 -94.4708
rradius 42.4324
rwrist 42.1909
rhand -16.2291 -5.62561
rfingers 7.12502
rthumb 9.97909 -35.3691
lclavicle -6.16232e-014 7.03698e-014
lhumerus -25.9212 -22.8199 98.4417
lradius 48.3609
lwrist -17.8495
lhand -17.7102 35.0848
lfingers 7.12502
lthumb 8.55004 64.8917
rfemur -51.1972 -2.25478 19.1123
rtibia 27.0542
rfoot -2.28093 -5.81881
rtoes 17.2871
lfemur -39.2541 -4.24528 -7.62435
ltibia 42.0166
lfoot -0.213137 5.80771
ltoes -24.1226
1100
root -5.26722 17.9239 -1.25705 27.0772 -24.1354 3.25769
lowerback 21.3521 -1.08638 -0.813753
upperback 4.93713 -1.4853 2.08119
thorax -6.46149 -0.724208 3.10818
lowerneck -16.9661 -8.39328 -12.9861
upperneck 3.02289 -9.66755 12.9784
head 4.92761 -4.25854 5.22269
rclavicle 8.3092e-014 -2.82274e-014
rhumerus -14.9042 35.4356 -94.3693
rradius 41.9384
rwrist 42.0638
rhand -16.5236 -5.45141
rfingers 7.12502
rthumb 9.69497 -35.2083
lclavicle 8.3092e-014 -2.82274e-014
lhumerus -25.6619 -23.5776 98.3954
lradius 47.925
lwrist -17.766
lhand -17.7095 34.9731
lfingers 7.12502
lthumb 8.55068 64.78
rfemur -51.0522 -2.24813 18.9187
rtibia 27.5846
rfoot -2.80814 -6.07308
rtoes 17.4295
lfemur -39.0227 -4.32112 -7.5669
ltibia 42.0352
lfoot -0.290725 5.11167
ltoes -24.7813
1101
root -5.26773 17.9171 -1.24313 26.8095 -23.8716 3.32068
lowerback 21.2272 -1.11648 -0.680178
upperback 4.92231 -1.49741 2.04909
thorax -6.4162 -0.73209 2.99611
lowerneck -16.967 -8.40323 -12.7857
upperneck 2.96329 -9.69577 12.7485
head 4.88827 -4.28292 5.11372
rclavicle 2.0276e-014 4.57205e-014
rhumerus -14.7303 35.5638 -94.3894
rradius 41.5285
rwrist 42.0086
rhand -17.0119 -5.36562
rfingers 7.12502
rthumb 9.22389 -35.1439
lclavicle 2.0276e-014 4.57205e-014
lhumerus -25.5483 -24.0137 98.3701
lradius 47.5785
lwrist -17.7129
lhand -17.7451 35.0205
lfingers 7.12502
lthumb 8.51632 64.8288
rfemur -50.9692 -2.22424 18.7565
rtibia 28.0969
rfoot -3.28187 -6.31072
rtoes 17.5641
lfemur -38.838 -4.36704 -7.49299
ltibia 42.0952
lfoot -0.343397 4.48571
ltoes -25.0385
1102
root -5.26603 17.9072 -1.22788 26.5465 -23.6945 3.4037
lowerback 21.0706 -1.07469 -0.577841
upperback 4.87923 -1.42668 1.97353
thorax -6.38971 -0.699259 2.83321
lowerneck -16.9715 -8.46815 -12.6705
upperneck 2.96663 -9.80103 12.6875
head 4.89378 -4.33579 5.06248
rclavicle -1.19271e-014 -3.85642e-014
rhumerus -14.6746 35.4292 -94.5165
rradius 41.1864
rwrist 42.0984
rhand -17.6525 -5.61973
rfingers 7.12502
rthumb 8.60574 -35.4243
lclavicle -1.19271e-014 -3.85642e-014
lhumerus -25.4727 -24.3384 98.3348
lradius 47.2903
lwrist -17.7608
lhand -17.4873 34.8116
lfingers 7.12502
lthumb 8.76507 64.6096
rfemur -50.9342 -2.2804 18.635
rtibia 28.6331
rfoot -3.56719 -6.3455
rtoes 16.88
lfemur -38.6527 -4.37263 -7.47176
ltibia 42.1702
lfoot -0.428885 3.90581
ltoes -25.044
1103
root -5.26254 17.8974 -1.20782 26.254 -23.4232 3.36942
lowerback 20.9093 -1.06625 -0.378301
upperback 4.88616 -1.37598 1.95341
thorax -6.30579 -0.678567 2.67898
lowerneck -16.9724 -8.52516 -12.6213
upperneck 2.89825 -9.8881 12.7405
head 4.88494 -4.37544 5.06125
rclavicle 6.95746e-014 2.38542e-014
rhumerus -14.5606 35.2714 -94.6086
rradius 40.8127
rwrist 42.1458
rhand -18.1633 -5.77826
rfingers 7.12502
rthumb 8.11278 -35.6025
lclavicle 6.95746e-014 2.38542e-014
lhumerus -25.3145 -24.6019 98.2629
lradius 47.0038
lwrist -17.7114
lhand -17.0719 34.7832
lfingers 7.12502
lthumb 9.16601 64.564
rfemur -50.797 -2.44035 18.707
rtibia 29.1902
rfoot -3.80459 -6.24632
rtoes 15.9182
lfemur -38.3917 -4.38684 -7.31789
ltibia 42.259
lfoot -0.554502 3.13598
ltoes -25.5033
1104
root -5.25835 17.8881 -1.18937 25.9831 -23.1137 3.41034
lowerback 20.694 -1.09095 -0.295628
upperback 4.86079 -1.38925 1.97424
thorax -6.22131 -0.686309 2.65139
lowerneck -16.9265 -8.55182 -12.5711
upperneck 2.78083 -9.92711 12.7052
head 4.84151 -4.3987 5.03926
rclavicle -7.95139e-015 6.2816e-014
rhumerus -14.3843 35.3553 -94.5858
rradius 40.4303
rwrist 41.8492
rhand -18.3205 -5.9476
rfingers 7.12502
rthumb 7.96098 -35.7777
lclavicle -7.95139e-015 6.2816e-014
lhumerus -25.1153 -24.8701 98.2263
lradius 46.6216
lwrist -17.4701
lhand -16.5226 34.6875
lfingers 7.12502
lthumb 9.69596 64.4444
rfemur -50.7141 -2.5882 18.6689
rtibia 29.7633
rfoot -4.07881 -6.23568
rtoes 15.0915
lfemur -38.2035 -4.46313 -7.20098
ltibia 42.3352
lfoot -0.713913 2.34891
ltoes -25.8439
1105
root -5.25273 17.8793 -1.17481 25.7186 -22.8094 3.48377
lowerback 20.5039 -1.12225 -0.271153
upperback 4.80011 -1.42117 2.01016
thorax -6.18536 -0.701234 2.67955
lowerneck -16.8172 -8.55662 -12.5996
upperneck 2.63107 -9.92614 12.6862
head 4.77805 -4.40492 5.04192
rclavicle 2.14687e-014 -4.37326e-015
rhumerus -14.2198 35.5651 -94.5189
rradius 40.0629
rwrist 41.4261
rhand -18.1604 -6.15325
rfingers 7.12502
rthumb 8.11549 -35.9774
lclavicle 2.14687e-014 -4.37326e-015
lhumerus -25.0394 -25.0083 98.2489
lradius 46.3558
lwrist -17.2445
lhand -16.3609 34.7236
lfingers 7.12502
lthumb 9.85194 64.4731
rfemur -50.6621 -2.65974 18.5445
rtibia 30.3337
rfoot -4.4379 -6.41895
rtoes 14.483
lfemur -38.0593 -4.4807 -7.12229
ltibia 42.397
lfoot -0.922049 1.4132
ltoes -25.138
